<svg xmlns="http://www.w3.org/2000/svg" width="31" height="31" viewBox="0 0 31 31">
  <g id="Group_5647" data-name="Group 5647" transform="translate(-330 -3617.584)">
    <g id="Ellipse_394" data-name="Ellipse 394" transform="translate(330 3617.584)" fill="none" stroke="#fff" stroke-width="1" opacity="0.5">
      <circle cx="15.5" cy="15.5" r="15.5" stroke="none"/>
      <circle cx="15.5" cy="15.5" r="15" fill="none"/>
    </g>
    <path id="Path_1007" data-name="Path 1007" d="M15.087,1.456a6.2,6.2,0,0,1-1.78.479,3.084,3.084,0,0,0,1.36-1.7A6.1,6.1,0,0,1,12.7.977,3.094,3.094,0,0,0,7.354,3.093,3.55,3.55,0,0,0,7.43,3.8,8.787,8.787,0,0,1,1.055.566,3.1,3.1,0,0,0,2.013,4.7a3.119,3.119,0,0,1-1.4-.393v.038A3.092,3.092,0,0,0,3.093,7.382a3.274,3.274,0,0,1-.814.105A4.114,4.114,0,0,1,1.7,7.44a3.1,3.1,0,0,0,2.89,2.145A6.2,6.2,0,0,1,.747,10.906,6.322,6.322,0,0,1,0,10.868a8.756,8.756,0,0,0,4.749,1.387,8.737,8.737,0,0,0,8.8-8.8c0-.134,0-.268-.009-.4A6.658,6.658,0,0,0,15.087,1.456Z" transform="translate(337.965 3627.116)" fill="#fff"/>
  </g>
</svg>
